<svg width="98" height="32" viewBox="0 0 98 32" fill="none" xmlns="http://www.w3.org/2000/svg" cursorshover="true"><path fill-rule="evenodd" clip-rule="evenodd" d="M19.7557 5.88426L13.2819 12.3448C12.5525 11.5866 11.5191 11.1316 10.3641 11.1316C8.11503 11.1316 6.32183 12.9515 6.32183 15.1656C6.32183 16.8035 7.3248 18.2291 8.7229 18.866V20.5949C8.08464 20.5039 7.44638 20.322 6.83851 20.1096C5.01491 19.4423 3.43445 18.3201 2.21872 16.8035C2.17422 16.7591 2.146 16.7147 2.11023 16.6584C2.09715 16.6378 2.08303 16.6156 2.06675 16.5912C0.729441 14.7713 0 12.6178 0 10.3732C0 8.12877 0.729441 5.97525 2.06675 4.15538C3.00895 2.88147 4.25507 1.8502 5.65317 1.12226C7.14244 0.394306 8.7229 0 10.3945 0C12.5828 0 14.6496 0.667287 16.4124 1.91087C17.8409 2.94213 18.9959 4.30704 19.7557 5.88426ZM22.4299 12.77C23.9496 14.7719 24.831 17.259 24.831 19.9889C24.831 26.6314 19.4514 32 12.7952 32C11.9746 32 11.154 31.9091 10.3941 31.7574C6.8685 31.0294 3.88995 28.7849 2.21831 25.7215L6.29103 21.6571C7.56755 22.1121 8.93528 22.3851 10.3941 22.3851V17.5624C9.0568 17.5624 7.99306 16.5008 7.99306 15.1662C7.99306 13.8316 9.0568 12.77 10.3941 12.77C11.7314 12.77 12.7952 13.8316 12.7952 15.1662L18.5396 9.4336C19.0563 9.70658 19.5425 10.0402 19.9984 10.3739C20.819 10.9805 21.5789 11.7084 22.2171 12.5274L22.4299 12.77ZM47.6308 14.5689C47.887 13.9939 48.015 13.3868 48.015 12.7478C48.015 11.8213 47.7909 11.0546 47.3427 10.3836C46.9266 9.80853 46.4143 9.36124 45.774 9.00987C45.1337 8.65839 44.4614 8.37085 43.7251 8.17916C43.2086 8.0447 42.7236 7.89452 42.2591 7.75067L42.259 7.75066C42.0613 7.68943 41.8674 7.62936 41.6762 7.57213C41.068 7.3485 40.5237 7.09291 40.1075 6.80537C39.6913 6.51782 39.4673 6.10249 39.4673 5.55936C39.4673 4.88844 39.6913 4.40921 40.1075 4.08972C40.5237 3.77023 41.068 3.61049 41.7402 3.61049C42.4446 3.61049 43.0208 3.80218 43.437 4.15362C43.6291 4.31336 43.7892 4.4731 43.8852 4.6648C44.1733 5.17598 44.6856 5.52741 45.2618 5.52741H45.4539C46.8305 5.52741 47.6629 3.89803 46.7665 2.81177C46.5424 2.52423 46.2863 2.30059 45.9982 2.07694C44.9416 1.27822 43.533 0.862891 41.8363 0.862891C40.9719 0.862891 40.1715 0.958738 39.4673 1.18238C38.7629 1.40602 38.1226 1.69356 37.6104 2.1089C37.0982 2.52423 36.682 3.00346 36.3939 3.57854C36.1058 4.15362 35.9777 4.7926 35.9777 5.52741C35.9777 6.26224 36.1058 6.86926 36.3298 7.38044C36.5539 7.85968 36.8741 8.27501 37.2902 8.62644C37.7065 8.97787 38.1547 9.23351 38.6669 9.45716C39.1792 9.6808 39.6913 9.87244 40.2356 10.0322C40.3606 10.0689 40.4839 10.1056 40.6059 10.1419H40.6059C41.0151 10.2636 41.4097 10.3811 41.8043 10.4795C42.3165 10.6392 42.7647 10.7989 43.1808 10.9907C43.5651 11.1823 43.8852 11.406 44.1413 11.6935C44.3975 11.9811 44.5255 12.3325 44.5255 12.7798C44.5255 13.3868 44.3334 13.866 43.8852 14.2175C43.437 14.5689 42.8288 14.7606 42.0284 14.7606C41.26 14.7606 40.6517 14.5689 40.2356 14.1855C40.0114 13.9939 39.8514 13.7702 39.7233 13.5146C39.4993 13.0035 39.0191 12.652 38.4428 12.652H37.7065C36.65 12.652 35.9777 13.8021 36.4579 14.7286C36.7781 15.3357 37.2263 15.8468 37.7704 16.2622C38.3147 16.6775 38.987 16.9971 39.7233 17.2207C40.4597 17.4444 41.26 17.5402 42.1244 17.5402C43.0848 17.5402 43.9172 17.4124 44.6535 17.1568C45.3899 16.9012 45.9982 16.5498 46.5104 16.1025C46.9906 15.6552 47.3747 15.144 47.6308 14.5689ZM60.8172 10.5125H54.7344C54.4463 10.5125 54.2222 10.7362 54.2222 11.0237V15.8799C54.2222 16.8065 53.4859 17.5412 52.5575 17.5412C51.6291 17.5412 50.8927 16.8065 50.8927 15.8799V2.65314C50.8927 1.72662 51.6291 0.991796 52.5575 0.991796C53.4859 0.991796 54.2222 1.72662 54.2222 2.65314V7.28571C54.2222 7.57324 54.4463 7.79689 54.7344 7.79689H60.8172C61.1053 7.79689 61.3294 7.57324 61.3294 7.28571V2.65314C61.3294 1.72662 62.0657 0.991796 62.9941 0.991796C63.9226 0.991796 64.6589 1.72662 64.6589 2.65314V15.8799C64.6589 16.8065 63.9226 17.5412 62.9941 17.5412C62.0657 17.5412 61.3294 16.8065 61.3294 15.8799V11.0237C61.3294 10.7362 61.1053 10.5125 60.8172 10.5125ZM77.5621 17.5727H79.8671C80.1553 17.5727 80.3793 17.3171 80.4114 17.0615V6.10305C80.4114 5.17653 79.6751 4.44172 78.7467 4.44172C77.8182 4.44172 77.0819 5.17653 77.0819 6.10305V11.5343C77.0819 12.5886 76.8258 13.3874 76.2815 13.9305C75.7693 14.4736 75.033 14.7612 74.1366 14.7612C73.2722 14.7612 72.5679 14.4736 72.0237 13.9305C71.4794 13.3874 71.2233 12.5886 71.2233 11.5343V6.0711C71.2233 5.14459 70.4869 4.40977 69.5585 4.40977C68.6301 4.40977 67.8938 5.14459 67.8938 6.0711V12.1094C67.8938 13.004 68.0219 13.7708 68.2779 14.4736C68.5341 15.1445 68.8862 15.7196 69.3664 16.1988C69.8147 16.6461 70.3909 16.9976 71.0312 17.2532C71.6715 17.4768 72.3759 17.6046 73.1442 17.6046C73.9765 17.6046 74.7129 17.4449 75.4171 17.1254C75.4704 17.0958 75.5226 17.0674 75.5739 17.0395C75.8 16.9162 76.0088 16.8024 76.2175 16.6461C76.5697 16.3906 77.0499 16.6142 77.0499 17.0615C77.0499 17.3491 77.274 17.5727 77.5621 17.5727ZM86.9738 5.20765C86.9738 5.65493 87.4861 5.87858 87.8382 5.59104C88.0943 5.3674 88.3825 5.17571 88.7027 5.01596C89.4393 4.60062 90.3355 4.40893 91.328 4.40893C92.1601 4.40893 92.9601 4.56868 93.6969 4.85621C94.4328 5.17571 95.0734 5.59104 95.6177 6.16612C96.162 6.74119 96.5781 7.41212 96.8979 8.24279C97.2187 9.04151 97.3461 9.968 97.3461 10.9584C97.3461 11.9489 97.1866 12.8754 96.8979 13.674C96.5781 14.5047 96.162 15.1756 95.6177 15.7827C95.0734 16.3578 94.4328 16.8051 93.6969 17.1245C92.9601 17.444 92.1601 17.6038 91.328 17.6038C90.2714 17.6038 89.4072 17.4121 88.6706 16.9968C88.3505 16.837 88.0624 16.6453 87.8382 16.4536C87.4861 16.1661 86.9738 16.4217 86.9738 16.837C86.9738 17.2524 86.6537 17.5718 86.2375 17.5718H84.3807C83.9645 17.5718 83.6443 17.2524 83.6443 16.837V1.66133C83.6443 0.734822 84.3807 0 85.3091 0C86.2375 0 86.9738 0.734822 86.9738 1.66133V5.20765ZM93.9526 10.9584C93.9526 10.3834 93.8573 9.84027 93.6648 9.39298C93.4724 8.94569 93.2167 8.56228 92.8969 8.24279C92.5761 7.95525 92.1922 7.69966 91.7761 7.53991C91.3601 7.38017 90.9119 7.31628 90.4638 7.31628C90.0148 7.31628 89.5987 7.38017 89.1827 7.53991C88.7666 7.69966 88.3825 7.9233 88.0624 8.24279C87.7422 8.56228 87.4861 8.94569 87.294 9.39298C87.102 9.84027 87.0059 10.3834 87.0059 10.9584C87.0059 11.5335 87.102 12.0766 87.294 12.5239C87.4861 12.9712 87.7422 13.3546 88.0624 13.674C88.3825 13.9936 88.7346 14.2172 89.1827 14.377C89.5987 14.5367 90.0469 14.6006 90.4638 14.6006C90.9119 14.6006 91.328 14.5047 91.7761 14.345C92.1922 14.1852 92.5761 13.9297 92.8969 13.6102C93.2167 13.2907 93.4724 12.9073 93.6648 12.4281C93.8573 12.0447 93.9526 11.5335 93.9526 10.9584ZM36.2979 26.1884C36.0737 26.6996 35.9777 27.2427 35.9777 27.8178C35.9777 28.4248 36.0737 28.9359 36.2979 29.4471C36.5219 29.9583 36.81 30.3737 37.1622 30.7251C37.5144 31.0765 37.9625 31.3641 38.4428 31.5557C38.923 31.7475 39.4352 31.8433 40.0114 31.8433C40.9079 31.8433 41.6762 31.6516 42.3165 31.2363C42.9888 30.8209 43.4691 30.2459 43.7572 29.4791H42.5086C42.2845 29.9583 41.9643 30.3098 41.5482 30.5653C41.132 30.8209 40.6198 30.9487 40.0435 30.9487C39.5953 30.9487 39.2111 30.8529 38.859 30.7251C38.5068 30.5973 38.1867 30.4056 37.9305 30.118C37.6744 29.8305 37.4823 29.511 37.3223 29.1276C37.1622 28.7443 37.0982 28.3289 37.0982 27.8497C37.0982 27.3705 37.1622 26.9232 37.3223 26.5398C37.4503 26.1564 37.6744 25.805 37.9305 25.5493C38.1867 25.2938 38.5068 25.0701 38.859 24.9423C39.2431 24.7826 39.6273 24.7187 40.0435 24.7187C40.6198 24.7187 41.132 24.8465 41.5482 25.1021C41.9643 25.3577 42.2845 25.7092 42.5086 26.1884H43.7572C43.437 25.3896 42.9568 24.8146 42.3165 24.3992C41.6442 23.9839 40.8759 23.7922 40.0114 23.7922C39.4673 23.7922 38.923 23.888 38.4428 24.0797C37.9625 24.2715 37.5144 24.5589 37.1622 24.9104C36.7781 25.2619 36.4899 25.6772 36.2979 26.1884ZM45.2604 23.3127H46.3169V31.8111H45.2604V23.3127ZM47.9175 27.337C47.7574 27.7524 47.6933 28.1676 47.6933 28.6469C47.6933 29.1261 47.7893 29.5734 47.9175 29.9888C48.0775 30.3722 48.3016 30.6916 48.5577 30.9792C48.8458 31.2348 49.166 31.4584 49.5182 31.6181C49.9023 31.7779 50.2865 31.8418 50.7026 31.8418C50.9908 31.8418 51.2469 31.8099 51.503 31.746C51.7591 31.682 51.9832 31.5862 52.1753 31.4584C52.3674 31.3306 52.5275 31.2028 52.6876 31.0431C52.8156 30.8834 52.9436 30.7236 53.0396 30.5638V31.8099H54.0962V25.5159H53.0396V26.762C52.9436 26.6022 52.8476 26.4424 52.6876 26.2827C52.5275 26.1229 52.3674 25.9952 52.1753 25.8674C51.9832 25.7396 51.7591 25.6437 51.503 25.5798C51.2789 25.5159 50.9908 25.484 50.7026 25.484C50.2865 25.484 49.8702 25.5479 49.5182 25.7076C49.134 25.8674 48.8138 26.059 48.5577 26.3466C48.2695 26.6341 48.0775 26.9536 47.9175 27.337ZM52.8796 27.7204C52.9757 28.0079 53.0396 28.3275 53.0396 28.6788C53.0396 29.0303 53.0077 29.3498 52.8796 29.6054C52.7515 29.861 52.5915 30.1165 52.3994 30.3083C52.2074 30.4999 51.9832 30.6597 51.7271 30.7556C51.439 30.8514 51.1829 30.9153 50.8947 30.9153C50.6066 30.9153 50.3185 30.8514 50.0624 30.7556C49.8063 30.6597 49.5821 30.4999 49.39 30.3083C49.198 30.1165 49.0699 29.8929 48.9419 29.6054C48.8459 29.3179 48.7818 28.9983 48.7818 28.6469C48.7818 28.2955 48.8138 27.976 48.9419 27.6884C49.038 27.4009 49.198 27.1772 49.39 26.9856C49.5821 26.8259 49.8063 26.6661 50.0624 26.5702C50.3185 26.4744 50.6066 26.4105 50.8947 26.4105C51.1829 26.4105 51.471 26.4744 51.7271 26.5702C51.9832 26.6661 52.2074 26.8259 52.3994 27.0175C52.6235 27.2092 52.7515 27.4329 52.8796 27.7204ZM60.4342 30.0856C60.4342 30.3412 60.3701 30.5648 60.2741 30.7884C60.1781 31.0121 60.018 31.2037 59.7939 31.3316C59.6018 31.4913 59.3457 31.6191 59.0576 31.683C58.7694 31.7788 58.4493 31.8108 58.0972 31.8108C57.713 31.8108 57.3928 31.7788 57.0727 31.683C56.7525 31.5872 56.4965 31.4594 56.2723 31.2996C56.0482 31.1399 55.8562 30.9163 55.7281 30.6926C55.6 30.469 55.504 30.2133 55.504 29.9258H56.5925C56.6245 30.2133 56.7525 30.469 57.0086 30.6606C57.2648 30.8524 57.617 30.9482 58.0652 30.9482C58.4813 30.9482 58.8014 30.8524 59.0256 30.6926C59.2496 30.5328 59.3457 30.3092 59.3457 30.0536C59.3457 29.83 59.2496 29.6702 59.0576 29.5424C58.8655 29.4147 58.6414 29.3188 58.3533 29.2229C58.0651 29.1271 57.777 29.0632 57.4569 28.9993C57.1368 28.9354 56.8486 28.8076 56.5604 28.6798C56.2723 28.552 56.0482 28.3604 55.8562 28.1367C55.6641 27.9131 55.568 27.6255 55.568 27.2421C55.568 27.0185 55.632 26.7948 55.7281 26.5712C55.8241 26.3476 55.9842 26.1878 56.2083 26.0281C56.4004 25.8684 56.6565 25.7405 56.9446 25.6766C57.2328 25.5808 57.5529 25.5488 57.9051 25.5488C58.6093 25.5488 59.1536 25.7085 59.6018 26.06C60.05 26.4115 60.2741 26.8907 60.3062 27.4977H59.3137C59.2817 27.1782 59.1536 26.9227 58.9295 26.7309C58.7054 26.5393 58.3533 26.4434 57.9371 26.4434C57.5529 26.4434 57.2328 26.5073 57.0406 26.667C56.8166 26.8268 56.7205 27.0185 56.7205 27.274C56.7205 27.4977 56.8166 27.6894 56.9767 27.8172C57.1687 27.945 57.3928 28.0728 57.6489 28.1367C57.8154 28.1921 57.9818 28.2368 58.1544 28.2831H58.1545C58.2807 28.3171 58.4101 28.3518 58.5454 28.3923C58.8655 28.4562 59.1536 28.584 59.4417 28.7117C59.7298 28.8396 59.954 28.9993 60.1461 29.2229C60.3382 29.4466 60.4342 29.7341 60.4342 30.0856ZM66.2933 30.7884C66.3893 30.5648 66.4534 30.3412 66.4534 30.0856C66.4213 29.7341 66.3252 29.4466 66.1012 29.2229C65.9091 28.9993 65.6849 28.8396 65.3968 28.7117C65.1087 28.584 64.8206 28.4562 64.5005 28.3923C64.3652 28.3518 64.2358 28.3171 64.1096 28.2831H64.1096C63.9369 28.2368 63.7705 28.1921 63.6041 28.1367C63.3479 28.0728 63.1239 27.945 62.9318 27.8172C62.7717 27.6894 62.6756 27.4977 62.6756 27.274C62.6756 27.0185 62.7717 26.8268 62.9957 26.667C63.1878 26.5073 63.508 26.4434 63.8922 26.4434C64.3083 26.4434 64.6605 26.5393 64.8846 26.7309C65.1087 26.9227 65.2367 27.1782 65.2688 27.4977H66.3252C66.2933 26.8907 66.0691 26.4115 65.621 26.06C65.1728 25.7085 64.6285 25.5488 63.9242 25.5488C63.5721 25.5488 63.2519 25.5808 62.9638 25.6766C62.6756 25.7405 62.4195 25.8684 62.2274 26.0281C62.0034 26.1878 61.8433 26.3476 61.7472 26.5712C61.6512 26.7948 61.5871 27.0185 61.5871 27.2421C61.5871 27.6255 61.6832 27.9131 61.8752 28.1367C62.0673 28.3604 62.2915 28.552 62.5796 28.6798C62.8677 28.8076 63.1558 28.9354 63.476 28.9993C63.7961 29.0632 64.0842 29.1271 64.3724 29.2229C64.6605 29.3188 64.8846 29.4147 65.0767 29.5424C65.2688 29.6702 65.3648 29.83 65.3648 30.0536C65.3648 30.3092 65.2688 30.5328 65.0446 30.6926C64.8206 30.8524 64.5005 30.9482 64.0842 30.9482C63.636 30.9482 63.2839 30.8524 63.0278 30.6606C62.7717 30.469 62.6436 30.2133 62.6116 29.9258H61.5232C61.5232 30.2133 61.6192 30.469 61.7472 30.6926C61.8752 30.9163 62.0673 31.1399 62.2915 31.2996C62.5155 31.4594 62.7717 31.5872 63.0918 31.683C63.412 31.7788 63.7321 31.8108 64.1162 31.8108C64.4684 31.8108 64.7886 31.7788 65.0767 31.683C65.3648 31.6191 65.621 31.4913 65.8131 31.3316C66.0371 31.2037 66.1972 31.0121 66.2933 30.7884ZM68.9824 31.8418H67.9259V25.5159H68.9824V26.698C69.1745 26.3147 69.4306 26.0271 69.7507 25.8035C70.1029 25.5798 70.5191 25.484 71.0313 25.484V26.5702H70.7432C70.487 26.5702 70.263 26.6022 70.0389 26.6661C69.8148 26.73 69.6227 26.8259 69.4947 26.9856C69.3346 27.1453 69.2065 27.337 69.1105 27.5606C69.0144 27.7843 68.9824 28.1038 68.9824 28.4552V31.8418ZM77.9479 29.9896C78.1079 29.6062 78.204 29.1589 78.204 28.6797C78.204 28.1685 78.1399 27.7532 77.9479 27.3699C77.7878 26.9865 77.5637 26.6669 77.2756 26.3794C76.9875 26.0919 76.6353 25.9002 76.2511 25.7404C75.8669 25.5807 75.4507 25.5168 75.0025 25.5168C74.5543 25.5168 74.1382 25.5807 73.754 25.7404C73.3698 25.9002 73.0177 26.0919 72.7295 26.3794C72.4414 26.635 72.2173 26.9865 72.0573 27.3699C71.8972 27.7532 71.8011 28.2005 71.8011 28.6797C71.8011 29.1589 71.8972 29.6062 72.0573 29.9896C72.2173 30.373 72.4414 30.6925 72.7295 30.9801C73.0177 31.2676 73.3378 31.4593 73.7219 31.619C74.1062 31.7788 74.5223 31.8427 74.9705 31.8427C75.3867 31.8427 75.8349 31.7788 76.2191 31.619C76.6032 31.4593 76.9554 31.2676 77.2435 30.9801C77.5637 30.7244 77.7878 30.373 77.9479 29.9896ZM73.0496 29.6701C72.9536 29.3826 72.8895 29.0631 72.8895 28.6797C72.8895 28.2964 72.9536 27.9449 73.0496 27.6893C73.1778 27.4018 73.3378 27.1781 73.5298 26.9865C73.7219 26.7948 73.9461 26.6669 74.2022 26.5711C74.4583 26.4753 74.7144 26.4433 75.0025 26.4433C75.2906 26.4433 75.5468 26.4753 75.8029 26.5711C76.059 26.6669 76.2831 26.7948 76.4752 26.9865C76.6673 27.1781 76.8274 27.4018 76.9554 27.6893C77.0835 27.9769 77.1475 28.2964 77.1475 28.6797C77.1475 29.0631 77.0835 29.3826 76.9554 29.6701C76.8274 29.9577 76.6673 30.1813 76.4752 30.373C76.2511 30.5647 76.027 30.6925 75.7708 30.7884C75.5148 30.8842 75.2587 30.9162 74.9705 30.9162C74.6824 30.9162 74.4263 30.8842 74.1701 30.7884C73.914 30.6925 73.6899 30.5647 73.4979 30.373C73.3058 30.1813 73.1778 29.9577 73.0496 29.6701ZM85.5973 28.6797C85.5973 29.1589 85.5013 29.6062 85.3412 29.9896C85.1811 30.373 84.957 30.7244 84.6368 30.9801C84.3487 31.2676 83.9966 31.4593 83.6124 31.619C83.2282 31.7788 82.7801 31.8427 82.3638 31.8427C81.9477 31.8427 81.4995 31.7788 81.1153 31.619C80.7311 31.4593 80.411 31.2676 80.1228 30.9801C79.8347 30.6925 79.6107 30.373 79.4506 29.9896C79.2905 29.6062 79.1944 29.1589 79.1944 28.6797C79.1944 28.2005 79.2905 27.7532 79.4506 27.3699C79.6107 26.9865 79.8347 26.635 80.1228 26.3794C80.411 26.0919 80.7631 25.9002 81.1473 25.7404C81.5315 25.5807 81.9477 25.5168 82.3958 25.5168C82.844 25.5168 83.2603 25.5807 83.6444 25.7404C84.0286 25.9002 84.3808 26.0919 84.6689 26.3794C84.957 26.6669 85.1811 26.9865 85.3412 27.3699C85.5013 27.7532 85.5973 28.1685 85.5973 28.6797ZM80.2829 28.6797C80.2829 29.0631 80.3469 29.3826 80.443 29.6701C80.5391 29.9577 80.6991 30.1813 80.8912 30.373C81.0832 30.5647 81.3074 30.6925 81.5634 30.7884C81.8196 30.8842 82.0757 30.9162 82.3638 30.9162C82.652 30.9162 82.9081 30.8842 83.1642 30.7884C83.4203 30.6925 83.6444 30.5647 83.8685 30.373C84.0606 30.1813 84.2207 29.9577 84.3487 29.6701C84.4768 29.3826 84.5408 29.0631 84.5408 28.6797C84.5408 28.2964 84.4768 27.9769 84.3487 27.6893C84.2207 27.4018 84.0606 27.1781 83.8685 26.9865C83.6764 26.7948 83.4523 26.6669 83.1962 26.5711C82.9401 26.4753 82.684 26.4433 82.3958 26.4433C82.1077 26.4433 81.8516 26.4753 81.5955 26.5711C81.3394 26.6669 81.1153 26.7948 80.9232 26.9865C80.7312 27.1781 80.5711 27.4018 80.443 27.6893C80.3149 27.9769 80.2829 28.2964 80.2829 28.6797ZM95.6195 26.8898C95.9393 27.2092 96.0997 27.6884 96.0997 28.3275H96.1959V31.7779H97.2205V28.1357C97.2205 27.7204 97.1563 27.3051 97.028 26.9856C96.8997 26.6661 96.7082 26.3786 96.4837 26.1549C96.26 25.9313 96.0035 25.7396 95.6836 25.6437C95.3629 25.5479 95.011 25.484 94.6591 25.484C94.1789 25.484 93.7308 25.6118 93.3147 25.8674C92.8978 26.1229 92.61 26.4744 92.4176 26.9536C92.1939 26.4744 91.9062 26.091 91.4892 25.8674C91.0732 25.6437 90.593 25.5159 90.0807 25.5159C89.6647 25.5159 89.2807 25.6118 88.9284 25.8035C88.5762 25.9632 88.2881 26.2508 88.096 26.6022V25.5159H87.0396V31.8418H88.096V28.4233C88.096 27.7524 88.2561 27.2412 88.5762 26.9217C88.8964 26.5702 89.3127 26.4105 89.8571 26.4105C90.3694 26.4105 90.7854 26.5702 91.1053 26.8898C91.4251 27.2092 91.5855 27.6884 91.5855 28.3275V31.8418H92.61V28.4233C92.61 27.7524 92.7704 27.2732 93.0902 26.9217C93.41 26.5702 93.827 26.4105 94.3704 26.4105C94.8827 26.4105 95.2997 26.5702 95.6195 26.8898Z" fill="#1E88E5" cursorshover="true"></path></svg>